<?xml version="1.0" encoding="UTF-8"?>
<svg width="200" height="60" version="1.1" viewBox="0 0 52.917 15.875" xmlns="http://www.w3.org/2000/svg">
 <g transform="translate(78.371 34.5)">
  <g transform="translate(5.9551 165.92)" fill="#1eaedb">
   <path d="m-76.389-184.55c-4.3768 0-7.9377-3.5683-7.9377-7.9516 0-4.3832 3.5607-7.9516 7.9377-7.9516 4.3767 0 7.9378 3.5684 7.9378 7.9516 0 4.3832-3.5608 7.9516-7.9378 7.9516zm0-1.294c3.6764 0 6.6438-2.9723 6.6438-6.6575 0-3.6851-2.9678-6.6575-6.6438-6.6575-3.6763 0-6.6436 2.9724-6.6436 6.6575 0 3.6853 2.9675 6.6575 6.6436 6.6575z" color="#000000" color-rendering="auto" dominant-baseline="auto" fill-rule="evenodd" image-rendering="auto" shape-rendering="auto" solid-color="#000000" style="font-feature-settings:normal;font-variant-alternates:normal;font-variant-caps:normal;font-variant-ligatures:normal;font-variant-numeric:normal;font-variant-position:normal;isolation:auto;mix-blend-mode:normal;shape-padding:0;text-decoration-color:#000000;text-decoration-line:none;text-decoration-style:solid;text-indent:0;text-orientation:mixed;text-transform:none;white-space:normal"/>
   <path transform="matrix(.26458 0 0 .26458 -84.326 -200.42)" d="m29.633 6.6035c-0.097654-0.0048301-0.19818 0.0091111-0.29492 0.044922-0.3895 0.14256-0.59133 0.58015-0.44922 0.9668 0.14208 0.38649 0.5779 0.59322 0.96875 0.44922h0.001953c0.38432-0.14328 0.59092-0.57698 0.44727-0.9668v-0.0019531h-0.001953c-0.10691-0.29222-0.37891-0.4777-0.67188-0.49219zm7.1016 0.83008c-0.097173-0.0052276-0.19632 0.0095835-0.29297 0.044922-0.391 0.14222-0.59337 0.58105-0.44922 0.96875 0.14249 0.38683 0.57684 0.59019 0.96484 0.44922l0.001953-0.0019532h0.001954c0.38084-0.14457 0.59334-0.57479 0.44726-0.9668l-0.22852 0.085938 0.22852-0.087891c-0.11045-0.28834-0.38231-0.4765-0.67383-0.49219zm-13.402 0.41797c-0.097496-0.0047947-0.1985 0.0093945-0.29492 0.044922-0.39125 0.14143-0.59375 0.57966-0.44922 0.9668 0.14323 0.38838 0.57954 0.58799 0.9668 0.45117l0.001953-0.0019531h0.001953c0.38712-0.14347 0.58331-0.57854 0.44336-0.96484v-0.0019531-0.0019531c-0.1051-0.29307-0.37743-0.4778-0.66992-0.49219zm6.3027 0.41602c-0.097818-0.0048649-0.1976 0.0086387-0.29492 0.044922-0.38964 0.1415-0.59203 0.57891-0.45117 0.9668v0.0019531c0.14234 0.38747 0.58028 0.58818 0.96875 0.44531 0.38515-0.14143 0.59363-0.57675 0.44922-0.9668-0.10685-0.28964-0.37842-0.47759-0.67188-0.49219zm6.5312 0.71875c-0.097758-0.0049966-0.19759 0.0088276-0.29492 0.044922-0.38912 0.14082-0.5934 0.57739-0.45117 0.9668 0.14212 0.38664 0.57796 0.58912 0.9668 0.45117 0.39238-0.14173 0.59415-0.58247 0.45117-0.9707-0.10652-0.28916-0.3786-0.4772-0.67188-0.49219zm-12.25 0.41406c-0.097443-0.0047681-0.19805 0.010403-0.29492 0.046875-0.38917 0.14332-0.58852 0.57974-0.45117 0.9668l0.001953 0.001954c0.14212 0.38861 0.58044 0.59089 0.96875 0.44726 0.38717-0.14343 0.58672-0.57894 0.44922-0.9668l-0.23047 0.082031 0.22852-0.087891c-0.10917-0.2884-0.37955-0.47593-0.67188-0.49023zm5.7168 0.53125c-0.097808-0.0043204-0.19791 0.012072-0.29492 0.048828-0.38736 0.13992-0.58914 0.57373-0.44922 0.96094 0.14148 0.39027 0.58013 0.59448 0.96875 0.45312v-0.001953h0.001953c0.38587-0.14389 0.59191-0.57833 0.44727-0.96875v-0.001953c-0.10683-0.28987-0.3804-0.47727-0.67383-0.49023zm5.9336 0.67773c-0.09762-0.00497-0.19627 0.0093-0.29297 0.044922-0.38789 0.14279-0.59568 0.57952-0.44922 0.9707 0.14418 0.38415 0.57728 0.59007 0.9668 0.44531v0.001954c0.38775-0.14362 0.59302-0.58041 0.45117-0.96875l-0.23047 0.083984 0.22852-0.085938c-0.10808-0.29214-0.38097-0.47728-0.67383-0.49219zm-11.082 0.37891c-0.097213-0.004969-0.19675 0.009867-0.29297 0.044922-0.38851 0.14014-0.59646 0.57687-0.45117 0.9668 0.14373 0.38441 0.57729 0.59 0.96484 0.44336 0.39062-0.13999 0.59125-0.57374 0.45508-0.95898l-0.23047 0.080078 0.22852-0.085937c-0.11067-0.29041-0.38219-0.47533-0.67383-0.49024zm18.199 0.19336c-0.097461-0.004403-0.19836 0.010686-0.29492 0.046875-0.38617 0.13984-0.59198 0.57521-0.44727 0.96484 0.14294 0.3871 0.5779 0.59322 0.9668 0.44922 0.38759-0.14528 0.59019-0.58088 0.44922-0.9707l-0.22852 0.082031 0.22852-0.085937c-0.10891-0.28874-0.38145-0.47312-0.67383-0.48633zm-25.297 0.36914c-0.097645-0.005499-0.19776 0.007914-0.29492 0.042969v0.001953h-0.001953c-0.38515 0.14294-0.58745 0.57645-0.44727 0.9668 0.14046 0.38921 0.5796 0.59473 0.96875 0.44922 0.38872-0.14037 0.59511-0.57733 0.44922-0.96484v-0.001953c-0.10867-0.29032-0.38089-0.47764-0.67383-0.49414zm24.229 0.91406c-0.097653-0.005347-0.19746 0.008197-0.29492 0.042968h-0.003906l-0.001953 0.001954c-0.38009 0.14657-0.5858 0.57487-0.44531 0.96484v0.001953l0.001953 0.001954c0.1436 0.38581 0.57757 0.589 0.9668 0.44726 0.39189-0.14135 0.58901-0.58116 0.45117-0.96875l-0.23047 0.082031 0.22852-0.085937c-0.10866-0.28726-0.37892-0.47224-0.67188-0.48828zm-23.131 0.375c-0.097898-0.004633-0.19787 0.010214-0.29492 0.046875-0.38598 0.14218-0.58752 0.57444-0.44726 0.96094 0.13801 0.39209 0.57683 0.59574 0.9668 0.45703l0.001954-0.001954h0.003906c0.38043-0.1488 0.58358-0.58082 0.44336-0.96875-0.10559-0.29211-0.38013-0.48024-0.67383-0.49414zm22.041 0.86914c-0.097302-0.005095-0.19643 0.009584-0.29297 0.044922-0.39046 0.13822-0.59222 0.57534-0.45117 0.96289 0.13948 0.39027 0.57663 0.59517 0.96484 0.45117 0.3912-0.14086 0.59087-0.57941 0.44922-0.96484v-0.001953c-0.10673-0.29052-0.37802-0.4769-0.66992-0.49219zm-20.979 0.45312c-0.097149-0.005059-0.19666 0.007914-0.29297 0.042969v0.001953c-0.38474 0.14192-0.59018 0.57534-0.44531 0.96289 0.13828 0.39466 0.58006 0.5936 0.9668 0.44922v-0.001953c0.38446-0.14022 0.58607-0.57209 0.44336-0.95703h0.001953c-5.52e-4 -0.001587-0.00139-0.002319-0.001953-0.003906-6.46e-4 -3.78e-4 6.61e-4 -0.002205 0-0.003906l-0.003906 0.001953c-0.10503-0.29134-0.37652-0.47701-0.66797-0.49219zm10.34 0.48828c-0.756 0-1.377 0.61509-1.377 1.375 0 0.76134 0.6202 1.3809 1.377 1.3809 0.76025 0 1.3848-0.61952 1.3848-1.3809 0-0.75991-0.62525-1.375-1.3848-1.375zm2.8301 0.26172c-0.7582 0-1.3789 0.61622-1.3789 1.377 0 0.75688 0.6188 1.377 1.3789 1.377 0.75702 0 1.377-0.62026 1.377-1.377 0-0.76017-0.62082-1.377-1.377-1.377zm-5.6621 0.14453c-0.75976 0-1.3828 0.62218-1.3828 1.3848 0 0.75926 0.62352 1.377 1.3828 1.377 0.75785 0 1.377-0.61822 1.377-1.377 0-0.76202-0.61863-1.3848-1.377-1.3848zm8.3398 1.1406c-0.76073 0-1.3809 0.61946-1.3809 1.377 0 0.76017 0.6204 1.3809 1.3809 1.3809 0.75593 0 1.375-0.62069 1.375-1.3809 0-0.7567-0.61902-1.3757-1.375-1.377zm-11.018 0.11133c-0.75723 0-1.3789 0.61923-1.3789 1.3789 0 0.75824 0.62127 1.3809 1.3789 1.3809 0.75764 0 1.375-0.62314 1.375-1.3809 0-0.7579-0.61736-1.3789-1.375-1.3789zm22.434 0.31055c-0.096999-0.005397-0.19669 0.006527-0.29297 0.041015l-0.001953 0.001953c-0.38791 0.14211-0.59395 0.57952-0.44727 0.9707 0.14242 0.38509 0.57439 0.589 0.96289 0.44727 0.38913-0.14022 0.59514-0.57762 0.44922-0.9668v-0.001953-0.001953h-0.001953c-0.10732-0.29049-0.37697-0.47404-0.66797-0.49023zm-33.523 0.37891c-0.097575-0.004708-0.19652 0.009205-0.29297 0.044922-0.39039 0.14018-0.58752 0.57554-0.45312 0.96094v0.001953l0.001953 0.003907c0.14482 0.38717 0.58228 0.58969 0.9707 0.44531 0.38424-0.14116 0.58775-0.57316 0.44727-0.96094v-0.001953-0.001954h-0.001954c-0.10576-0.29401-0.37915-0.47806-0.67188-0.49219zm32.094 0.45312c-0.097503-0.004632-0.19817 0.010308-0.29492 0.046875-0.39032 0.1429-0.58938 0.57795-0.45313 0.96289v0.001953 0.001953c0.14386 0.39001 0.58119 0.58944 0.96875 0.44922h0.001954 0.001953c0.38691-0.14596 0.59013-0.58247 0.44726-0.9707-0.10792-0.28953-0.37936-0.47829-0.67188-0.49219zm-30.646 0.41797c-0.097049-0.004857-0.19651 0.009394-0.29297 0.044921-0.39083 0.13878-0.59184 0.57717-0.45117 0.9668 0.14066 0.38717 0.57768 0.58736 0.9668 0.44336 0.3901-0.13663 0.58882-0.57276 0.44531-0.95898l0.003906-0.001953c-4.72e-4 -0.00136-0.001473-0.002545-0.001953-0.003906v-0.001953h-0.003906c-0.10488-0.28925-0.37487-0.47371-0.66602-0.48828zm22.924 0.18164c-0.75641 0-1.375 0.62117-1.375 1.377 0 0.7601 0.61846 1.3809 1.375 1.3809 0.76086 0 1.3789-0.62095 1.3789-1.3809 0-0.7556-0.61818-1.377-1.3789-1.377zm-15.551 0.11133c-0.75991 0-1.3789 0.62112-1.3789 1.3789 0 0.75821 0.61893 1.377 1.3789 1.377 0.75771 0 1.3809-0.61705 1.3809-1.377 0-0.75866-0.6235-1.3789-1.3809-1.3789zm21.775 0.1582c-0.097699-0.005227-0.19778 0.009773-0.29492 0.044922-0.39108 0.14071-0.58606 0.57731-0.45117 0.96289v0.001953c0.14189 0.39072 0.5816 0.59397 0.96875 0.44922 0.38732-0.14056 0.59261-0.57713 0.44922-0.9668-0.10764-0.29004-0.37878-0.4765-0.67188-0.49219zm-27.707 0.37305c-0.097249-0.005385-0.1962 0.0093-0.29297 0.044922-0.38882 0.14328-0.58982 0.58003-0.44922 0.96875 0.14114 0.39125 0.58089 0.59013 0.9668 0.44727 0.38632-0.13928 0.59202-0.57426 0.44726-0.96094v-0.001953c-3.89e-4 -0.00102 3.97e-4 -0.002886 0-0.003906l-0.001953 0.001953c-0.10719-0.28995-0.37817-0.47994-0.66992-0.49609zm23.035 1.7324c-0.75846 0-1.3789 0.62204-1.3789 1.3828 0 0.76017 0.62215 1.375 1.3789 1.375 0.75779 0 1.3848-0.61434 1.3848-1.375 0-0.761-0.62445-1.3828-1.3848-1.3828zm-18.66 0.11914c-0.75921 0-1.377 0.62166-1.377 1.377 0 0.759 0.61787 1.3789 1.377 1.3789 0.76052 0 1.3809-0.61957 1.3809-1.3789 0-0.7553-0.61917-1.377-1.3809-1.377zm19.627 2.7188c-0.75936 0-1.375 0.61994-1.375 1.3789 0 0.76062 0.61632 1.3789 1.375 1.3789 0.75765 0 1.3809-0.61673 1.3809-1.3789 0-0.75915-0.61982-1.3773-1.3789-1.3789h-0.001954zm-20.605 0.15039c-0.75977 0-1.3809 0.619-1.3809 1.3789 0 0.75806 0.62143 1.377 1.3809 1.377 0.75861 0 1.373-0.62033 1.373-1.377 0-0.75768-0.61383-1.3789-1.373-1.3789zm29.311 0.31055c-0.097557-0.005019-0.19611 0.009017-0.29297 0.044922-0.38679 0.14313-0.5886 0.5768-0.45117 0.96484v0.001953l0.001953 0.001953c0.14451 0.38608 0.57734 0.5883 0.96484 0.44922h0.001953 0.001953c0.38689-0.14389 0.5899-0.57999 0.44727-0.96875l-0.23047 0.083984 0.23047-0.085937c-0.10759-0.29024-0.38116-0.47713-0.67383-0.49219zm-1.6191 0.30078c-0.097819-0.005918-0.19916 7e-3 -0.29688 0.041015l-0.001953 0.001953h-0.001953c-0.38652 0.1437-0.59091 0.5816-0.44336 0.9707 0.14105 0.38997 0.57766 0.58667 0.96289 0.44531 0.39091-0.13992 0.59183-0.57662 0.45312-0.96289l-0.23047 0.083985 0.22852-0.085938c-0.10754-0.28913-0.37647-0.47639-0.66992-0.49414zm-36.074 0.076171c-0.097518-0.005272-0.198 0.00782-0.29492 0.042969-0.39097 0.14411-0.58984 0.58178-0.45117 0.9668 0.14152 0.3928 0.58133 0.58912 0.9668 0.45117h0.001953c0.38928-0.14358 0.58783-0.57806 0.45312-0.96289l-0.23242 0.080079 0.23047-0.085938c-0.109-0.29052-0.38127-0.47637-0.67383-0.49219zm34.404 0.19141c-0.098015-0.004455-0.19963 0.010308-0.29688 0.046875-0.38834 0.14026-0.59067 0.57511-0.45117 0.96289v0.001954 0.001953c0.14587 0.38861 0.58267 0.58786 0.96875 0.44726 0.39408-0.142 0.59038-0.58001 0.45508-0.96484l-0.23047 0.080079 0.22852-0.083985c-0.1071-0.29123-0.37978-0.47882-0.67383-0.49219zm-32.729 0.078125c-0.097532-0.004837-0.19591 0.009016-0.29297 0.044922-0.39162 0.1392-0.59059 0.57714-0.45312 0.96484v0.001953l0.001953 0.001954c0.14511 0.38487 0.58044 0.58698 0.96875 0.44336 0.39178-0.13886 0.59006-0.58044 0.44726-0.96875-0.10774-0.28828-0.37928-0.47377-0.67188-0.48828zm1.6348 0.33594c-0.097723-0.005136-0.19743 0.008828-0.29492 0.044922-0.39002 0.14377-0.58973 0.58112-0.45117 0.96875v0.001953 0.001953c0.14504 0.38668 0.58292 0.58629 0.9707 0.44531 0.38864-0.14245 0.58916-0.57947 0.45117-0.9668l-0.23047 0.082031 0.22852-0.08789c-0.10943-0.28738-0.38066-0.47482-0.67383-0.49024zm25.977 1.7305c-0.75976 0-1.3789 0.62161-1.3789 1.3789 0 0.75832 0.61983 1.3809 1.3789 1.3809 0.75928 0 1.3809-0.62228 1.3809-1.3809 0-0.75654-0.62056-1.3789-1.3809-1.3789zm-21.037 0.18945c-0.75757 0-1.377 0.61874-1.377 1.3789 0 0.75896 0.61904 1.3789 1.377 1.3789 0.75874 0 1.3809-0.61942 1.3809-1.3789 0-0.76074-0.62246-1.3789-1.3809-1.3789zm0.9707 2.9844c-0.75832 0-1.3789 0.62054-1.3789 1.3809 0 0.76112 0.62167 1.377 1.3789 1.377 0.756 0 1.3789-0.61603 1.3789-1.377 0-0.7596-0.62041-1.3822-1.3789-1.3809zm19.102 0.039063c-0.75764 0-1.3789 0.61858-1.3789 1.3789 0 0.759 0.62105 1.375 1.3789 1.375 0.75724 0 1.3789-0.61634 1.3789-1.375 0-0.75953-0.6208-1.3799-1.3789-1.3789zm5.5098 1.293c-0.097716-0.005456-0.19786 0.00867-0.29492 0.042969h-0.001953-0.001953c-0.39053 0.14321-0.5893 0.58144-0.44726 0.9668 0.14239 0.39178 0.5805 0.59372 0.96875 0.45312v-0.001953h0.001953c0.38568-0.14256 0.58503-0.57593 0.44726-0.96484l-0.22852 0.082031 0.22852-0.083984c-0.10734-0.29166-0.37873-0.47777-0.67188-0.49414zm1.6855 0.26172c-0.097387-0.005776-0.19671 0.007284-0.29297 0.041016h-0.001953l-0.003906 0.001953c-0.3874 0.146-0.59572 0.58138-0.44726 0.9707v0.001953c0.14511 0.38517 0.57947 0.58591 0.96484 0.44531 0.39153-0.14154 0.59172-0.57859 0.45312-0.96289-0.10631-0.29511-0.37971-0.48072-0.67188-0.49805zm-31.621 0.11914c-0.097654-0.00482-0.19774 0.008922-0.29492 0.044922-0.39123 0.14305-0.59142 0.5811-0.44727 0.9668 0.14377 0.38498 0.57688 0.5936 0.9668 0.44922 0.3887-0.1432 0.58849-0.58014 0.44922-0.96875l-0.22852 0.082032 0.22852-0.085938c-0.10816-0.28831-0.38087-0.47382-0.67383-0.48828zm33.264 0.18555c-0.097419-0.005531-0.1978 0.008008-0.29492 0.042968-0.38972 0.14188-0.59706 0.58182-0.45117 0.97266 0.14313 0.38494 0.57827 0.59126 0.96875 0.44726 0.39023-0.14264 0.58601-0.58076 0.44726-0.9668l-0.23047 0.082032 0.23047-0.083985c-0.10711-0.2893-0.37766-0.47755-0.66992-0.49414zm-34.943 0.078125c-0.097788-0.004971-0.19746 0.0093-0.29492 0.044921v0.001954c-0.38652 0.14339-0.59353 0.58046-0.44727 0.97266 0.14458 0.38638 0.58031 0.58244 0.96484 0.44336 0.38992-0.14196 0.58506-0.57786 0.45508-0.96484l-0.23242 0.078124 0.22852-0.08789c-0.10922-0.28706-0.38046-0.47337-0.67383-0.48828zm-1.6484 0.30078c-0.097616-0.005281-0.19595 0.007819-0.29297 0.042969l-0.001953 0.001953h-0.001953c-0.3853 0.1446-0.59137 0.57785-0.44922 0.9668 0.14172 0.39001 0.58003 0.59895 0.96875 0.45117 0.3852-0.14483 0.5912-0.57886 0.45117-0.96875h-0.001953c-0.10686-0.29089-0.37903-0.4783-0.67188-0.49414zm10.078 0.56055c-0.75846 0-1.3809 0.62014-1.3809 1.377 0 0.75908 0.62364 1.3828 1.3809 1.3828 0.75743 0 1.377-0.62434 1.377-1.3828 0-0.75628-0.61849-1.377-1.377-1.377zm16.24 0.041015c-0.75566 0-1.3789 0.616-1.3789 1.375s0.62264 1.377 1.3789 1.377c0.76059 0 1.3809-0.61905 1.3809-1.377s-0.62088-1.375-1.3809-1.375zm-14.275 2.6426c-0.75676 0-1.377 0.61554-1.377 1.377 0 0.75813 0.61904 1.3789 1.377 1.3789 0.75977 0 1.3809-0.62059 1.3809-1.3789 0-0.76161-0.62224-1.377-1.3809-1.377zm12.301 0.035157c-0.75894 0-1.3789 0.62114-1.3789 1.3809 0 0.75756 0.62029 1.373 1.3789 1.373 0.75573 0 1.3789-0.61424 1.3789-1.373 0-0.76032-0.62099-1.3809-1.3789-1.3809zm6.457 0.43164c-0.41598 0-0.75391 0.34636-0.75391 0.75977 0 0.41045 0.33714 0.75391 0.75391 0.75391 0.41552 0 0.75781-0.33998 0.75781-0.75391 0-0.4173-0.34349-0.75977-0.75781-0.75977zm-25.109 0.41016c-0.097481-0.005121-0.19794 0.009772-0.29492 0.044922h-0.001953c-0.3858 0.14555-0.59264 0.58098-0.44531 0.9668 0.14102 0.39107 0.57646 0.59297 0.96289 0.45312h0.001953l0.001953-0.001953c0.38861-0.14525 0.59186-0.58138 0.44922-0.9707l-0.23047 0.083985 0.22852-0.085938c-0.10902-0.28831-0.37943-0.47487-0.67188-0.49023zm26.59 0.46289c-0.41607 0-0.75586 0.34299-0.75586 0.75586 0 0.4165 0.34479 0.75391 0.75586 0.75391 0.41162 0 0.75195-0.33982 0.75195-0.75391 0-0.41045-0.33534-0.75586-0.75195-0.75586zm-28.035 0.4043c-0.097447-0.004875-0.19803 0.00845-0.29492 0.044922-0.38702 0.13984-0.58978 0.57399-0.44922 0.96094 0.13911 0.39054 0.57662 0.59782 0.96484 0.45117 0.38961-0.13882 0.59201-0.57636 0.44922-0.96289v-0.001953c-0.10642-0.29012-0.37758-0.47756-0.66992-0.49219zm29.479 0.43164c-0.40982 0-0.75195 0.33734-0.75195 0.75195 0 0.41461 0.34105 0.75391 0.75195 0.75391 0.41412 0 0.75977-0.33854 0.75977-0.75391 0-0.41522-0.3467-0.75195-0.75977-0.75195zm-30.941 0.4043c-0.097526-0.005052-0.1959 0.007725-0.29297 0.042968-0.38915 0.14011-0.59147 0.57766-0.45117 0.9668v0.001953c0.14234 0.38963 0.58053 0.59133 0.96875 0.44922 0.39124-0.14188 0.58799-0.58364 0.44531-0.9707v-0.001953c-0.10553-0.28925-0.37735-0.47313-0.66992-0.48828zm10.674 0.060547c-0.75928 0-1.377 0.62351-1.377 1.3828 0 0.75866 0.61794 1.3789 1.377 1.3789 0.75552 0 1.377-0.61942 1.377-1.3789s-0.61932-1.3828-1.377-1.3828zm9.4785 0.076171c-0.75922 0-1.3789 0.61868-1.3789 1.3809 0 0.75601 0.61996 1.373 1.3789 1.373 0.7573 0 1.377-0.61677 1.377-1.373 0-0.76142-0.61904-1.3809-1.377-1.3809zm-0.71094 2.9922c-0.75511 0-1.3789 0.61468-1.3789 1.375 0 0.7601 0.62209 1.3828 1.3789 1.3828 0.75948 0 1.377-0.62332 1.377-1.3828 0-0.75972-0.61916-1.375-1.377-1.375zm-8.1387 0.037109c-0.75511 0-1.377 0.61663-1.377 1.377 0 0.7601 0.62014 1.3809 1.377 1.3809 0.75948 0 1.3789-0.62137 1.3789-1.3809 0-0.75972-0.62112-1.377-1.3789-1.377zm7.4707 3.6484c-0.41447 0-0.75391 0.34154-0.75391 0.75195 0 0.41401 0.34064 0.75586 0.75391 0.75586 0.41396 0 0.75391-0.34178 0.75391-0.75586 0-0.41053-0.33874-0.75195-0.75391-0.75195zm-1.709 0.10547c-0.41717 0-0.75391 0.3475-0.75391 0.75977 0 0.41098 0.33675 0.75586 0.75391 0.75586 0.41607 0 0.75391-0.34359 0.75391-0.75586 0-0.41352-0.33784-0.75977-0.75391-0.75977zm-1.6855 0.11914c-0.41467 0-0.75781 0.33945-0.75781 0.75391 0 0.41476 0.34208 0.75586 0.75781 0.75586 0.41241 0 0.75391-0.34004 0.75391-0.75586 0-0.41574-0.34258-0.75391-0.75391-0.75391zm-1.7246 0.076172c-0.41342 0-0.75586 0.33848-0.75586 0.75195 0 0.41438 0.3411 0.75781 0.75586 0.75781 0.4149 0 0.75586-0.34471 0.75586-0.75781 0-0.41219-0.34231-0.75195-0.75586-0.75195zm-1.7246 0.072266c-0.41501 0-0.75586 0.34128-0.75586 0.75586 0 0.41469 0.34464 0.75 0.75586 0.75 0.41278 0 0.75586-0.33713 0.75586-0.75s-0.33935-0.75586-0.75586-0.75586zm6.5742 1.627c-0.41286 0-0.75586 0.33854-0.75586 0.75391 0 0.4131 0.34046 0.75391 0.75586 0.75391 0.41471 0 0.75391-0.34149 0.75391-0.75391 0-0.41461-0.34176-0.75391-0.75391-0.75391zm-1.707 0.11719c-0.41566 0-0.75781 0.33868-0.75781 0.75 0 0.4159 0.34455 0.75586 0.75781 0.75586 0.41116 0 0.75391-0.33879 0.75391-0.75586 0-0.41242-0.34029-0.75-0.75391-0.75zm-1.6895 0.10938c-0.41582 0-0.75391 0.34224-0.75391 0.75391 0 0.41136 0.33674 0.75586 0.75391 0.75586 0.41635 0 0.75781-0.34253 0.75781-0.75586 0-0.41348-0.34282-0.75391-0.75781-0.75391zm-1.7227 0.080078c-0.40982 0-0.75391 0.33516-0.75391 0.75 0 0.41703 0.34272 0.75586 0.75391 0.75586 0.41428 0 0.75586-0.34087 0.75586-0.75586 0-0.4128-0.34294-0.75-0.75586-0.75zm-1.7207 0.070313c-0.41048 0-0.75391 0.33879-0.75391 0.75586 0 0.41257 0.34095 0.75195 0.75391 0.75195 0.41418 0 0.75391-0.34029 0.75391-0.75195 0-0.41438-0.34036-0.75586-0.75391-0.75586zm7.3223 1.6641c-0.41214 0-0.75195 0.3402-0.75195 0.75391 0 0.41348 0.33981 0.75391 0.75195 0.75391 0.41452 0 0.75586-0.3405 0.75586-0.75391 0-0.41348-0.34132-0.75391-0.75586-0.75391zm-1.7051 0.078125c-0.4147 0-0.75195 0.34127-0.75195 0.75195 0 0.41401 0.33831 0.75586 0.75195 0.75586 0.41477 0 0.75586-0.34125 0.75586-0.75586 0-0.41144-0.34005-0.75195-0.75586-0.75195zm-1.6875 0.11328c-0.41403 0-0.75391 0.34029-0.75391 0.75195 0 0.41352 0.33795 0.75781 0.75391 0.75781 0.41596 0 0.75391-0.34441 0.75391-0.75781 0-0.41166-0.34-0.75195-0.75391-0.75195zm-1.7188 0.072265c-0.41566 0-0.75586 0.34223-0.75586 0.75586 0 0.4137 0.3426 0.75195 0.75586 0.75195 0.41117 0 0.75-0.34029 0.75-0.75195 0-0.41174-0.33639-0.75586-0.75-0.75586zm-1.7207 0.076172c-0.41469 0-0.75781 0.3405-0.75781 0.75391 0 0.41121 0.34074 0.75391 0.75781 0.75391 0.41254 0 0.75-0.34043 0.75-0.75391 0-0.41574-0.3399-0.75391-0.75-0.75391zm6.5977 1.6621c-0.41502 0-0.75195 0.3437-0.75195 0.75586 0 0.41348 0.33952 0.75391 0.75195 0.75391 0.41354 0 0.75586-0.3393 0.75586-0.75391 0-0.41325-0.33976-0.75586-0.75586-0.75586zm-1.707 0.080079c-0.41202 0-0.75195 0.33908-0.75195 0.75195 0 0.41692 0.34078 0.75781 0.75195 0.75781 0.41525 0 0.75781-0.34139 0.75781-0.75781 0-0.41182-0.34122-0.75195-0.75781-0.75195zm-1.6855 0.10742c-0.41603 0-0.75586 0.34502-0.75586 0.75781 0 0.41197 0.34013 0.75391 0.75586 0.75391 0.41403 0 0.75391-0.34043 0.75391-0.75391 0-0.41514-0.34025-0.75781-0.75391-0.75781zm-1.7227 0.076172c-0.41335 0-0.75586 0.33974-0.75586 0.75586 0 0.41499 0.34235 0.75391 0.75586 0.75391 0.41241 0 0.75391-0.33979 0.75391-0.75391 0-0.41552-0.34165-0.75586-0.75391-0.75586zm-1.7207 0.074219c-0.41486 0-0.75391 0.34282-0.75391 0.75781 0 0.4137 0.34149 0.75195 0.75391 0.75195 0.41256 0 0.75391-0.33848 0.75391-0.75195 0-0.41465-0.33892-0.75781-0.75391-0.75781z" color="#000000" color-rendering="auto" dominant-baseline="auto" image-rendering="auto" shape-rendering="auto" solid-color="#000000" style="font-feature-settings:normal;font-variant-alternates:normal;font-variant-caps:normal;font-variant-ligatures:normal;font-variant-numeric:normal;font-variant-position:normal;isolation:auto;mix-blend-mode:normal;shape-padding:0;text-decoration-color:#000000;text-decoration-line:none;text-decoration-style:solid;text-indent:0;text-orientation:mixed;text-transform:none;white-space:normal"/>
   <g aria-label="OBI">
    <path d="m-52.894-192.48q0 3.5878-1.9181 5.6451-1.9181 2.0573-5.2575 2.0573-3.3493 0-5.2575-2.0771-1.9082-2.0871-1.9082-5.6252 0-3.5679 1.9082-5.6351 1.9082-2.0772 5.2575-2.0772 3.3393 0 5.2575 2.0672 1.9181 2.0573 1.9181 5.645zm-3.8363-0.01q0-1.3218-0.27828-2.2461-0.26834-0.93422-0.72551-1.5305-0.47705-0.60624-1.0833-0.86464-0.59631-0.26834-1.2423-0.26834-0.68576 0-1.2423 0.24846-0.55656 0.23852-1.0734 0.86465-0.45717 0.57643-0.74538 1.5305-0.27828 0.9541-0.27828 2.2759 0 1.3616 0.26834 2.266 0.26834 0.89446 0.73545 1.5007 0.47705 0.61618 1.0833 0.88452 0.60625 0.2584 1.2522 0.2584 0.65594 0 1.2721-0.27828 0.61619-0.28821 1.0634-0.88452 0.47705-0.646 0.73545-1.5007 0.2584-0.86465 0.2584-2.256z"/>
    <path d="m-39.889-189.62q0 1.1032-0.41742 1.938-0.41742 0.83483-1.123 1.3814-0.83483 0.65594-1.8386 0.93422-0.99385 0.27828-2.5343 0.27828h-5.9233v-14.798h5.2276q1.6299 0 2.4647 0.1292 0.84477 0.11926 1.5802 0.5168 0.79508 0.42735 1.1827 1.1429 0.39754 0.71557 0.39754 1.6498 0 1.0833-0.54662 1.9281-0.53668 0.84478-1.4908 1.2423v0.0795q1.3715 0.28822 2.1964 1.1827 0.82489 0.88453 0.82489 2.3952zm-4.7605-6.0823q0-0.35779-0.18883-0.73545-0.17889-0.37766-0.56649-0.54662-0.36772-0.15901-0.87459-0.16895-0.49692-0.0199-1.4908-0.0199h-0.2584v3.1306h0.46711q0.95409 0 1.3318-0.0199 0.3876-0.0199 0.79508-0.2087 0.44723-0.20871 0.61619-0.57643 0.16895-0.36773 0.16895-0.85471zm0.93422 6.0128q0-0.68575-0.27828-1.0734-0.27828-0.3876-0.83483-0.58637-0.33791-0.1292-0.93422-0.13914-0.58637-0.0199-1.5802-0.0199h-0.68576v3.7071h0.19877q1.451 0 2.0076-0.0199t1.133-0.26834q0.50686-0.21865 0.73545-0.63606 0.23852-0.42736 0.23852-0.96404z"/>
    <path d="m-31.415-185.09h-7.9707v-2.584h2.1268v-9.6304h-2.1268v-2.584h7.9707v2.584h-2.1268v9.6304h2.1268z"/>
   </g>
  </g>
 </g>
</svg>
